<svg xmlns="http://www.w3.org/2000/svg" xmlns:se="http://svg-edit.googlecode.com" xmlns:xlink="http://www.w3.org/1999/xlink" xmlns:dc="http://purl.org/dc/elements/1.1/" xmlns:cc="http://creativecommons.org/ns#" xmlns:rdf="http://www.w3.org/1999/02/22-rdf-syntax-ns#" xmlns:inkscape="http://www.inkscape.org/namespaces/inkscape" width="777" height="480" style="">                                    <title>my vector image</title>                                    <!-- Created with Vector Paint - http://www.vectorpaint.yaks.com/ https://chrome.google.com/webstore/detail/hnbpdiengicdefcjecjbnjnoifekhgdo -->                                    <rect id="backgroundrect" width="100%" height="100%" x="0" y="0" fill="#FFFFFF" stroke="none"/>                                <g class="currentLayer" style=""><title>Layer 1</title><path fill="#0bd5d5" fill-opacity="1" stroke="#ffffff" stroke-opacity="1" stroke-width="0" stroke-dasharray="none" stroke-linejoin="round" stroke-linecap="butt" stroke-dashoffset="" fill-rule="nonzero" opacity="1" marker-start="" marker-mid="" marker-end="" d="M81.59966820577182,361.7459233266419 C81.59966820577182,264.29551184599694 163.99511006310203,185.36067854667454 265.71787778820124,185.36067854667454 C367.44064551330047,185.36067854667454 449.8360873706307,264.29551184599694 449.8360873706307,361.7459233266419 C449.8360873706307,459.1963348072868 367.44064551330047,538.1311681066093 265.71787778820124,538.1311681066093 C163.99511006310203,538.1311681066093 81.59966820577182,459.1963348072868 81.59966820577182,361.7459233266419 z" class="" id="svg_9"/><path fill="#412868" fill-opacity="1" stroke="#ffffff" stroke-opacity="1" stroke-width="0" stroke-dasharray="none" stroke-linejoin="round" stroke-linecap="butt" stroke-dashoffset="" fill-rule="nonzero" opacity="1" marker-start="" marker-mid="" marker-end="" d="M289.4540877333453,446.99179082133605 C289.4540877333453,306.0670479785199 408.6075759407369,191.9180062758387 555.7106478017142,191.9180062758387 C702.8137196626915,191.9180062758387 821.967207870083,306.0670479785199 821.967207870083,446.99179082133605 C821.967207870083,587.9165336641522 702.8137196626915,702.0655753668334 555.7106478017142,702.0655753668334 C408.6075759407369,702.0655753668334 289.4540877333453,587.9165336641522 289.4540877333453,446.99179082133605 z" id="svg_1" class=""/><path fill="#d130a8" fill-opacity="1" stroke="#ffffff" stroke-opacity="1" stroke-width="0" stroke-dasharray="none" stroke-linejoin="round" stroke-linecap="butt" stroke-dashoffset="" fill-rule="nonzero" opacity="1" marker-start="" marker-mid="" marker-end="" d="M477.90343069145695,206.12461137254286 C477.90343069145695,94.24705972911528 572.4971852125178,3.626242897938937 689.2795982014819,3.626242897938937 C806.0620111904461,3.626242897938937 900.655765711507,94.24705972911528 900.655765711507,206.12461137254286 C900.655765711507,318.00216301597044 806.0620111904461,408.6229798471468 689.2795982014819,408.6229798471468 C572.4971852125178,408.6229798471468 477.90343069145695,318.00216301597044 477.90343069145695,206.12461137254286 z" class="selected" id="svg_3"/></g></svg>